<?xml version="1.0" encoding="UTF-8"?><svg id="Layer_58" xmlns="http://www.w3.org/2000/svg" viewBox="0 0 720 576"><defs><style>.cls-1{font-family:AdvercaseDemo-Regular, 'Advercase Demo';font-size:17px;}.cls-2{font-family:AdvercaseDemo-Bold, 'Advercase Demo';font-size:25px;font-weight:700;}.cls-3{letter-spacing:0em;}.cls-4{letter-spacing:-.07em;}.cls-5{letter-spacing:-.02em;}.cls-6{letter-spacing:-.03em;}.cls-7{letter-spacing:-.02em;}.cls-8{letter-spacing:-.02em;}.cls-9{letter-spacing:-.02em;}.cls-10{letter-spacing:-.01em;}.cls-11{letter-spacing:-.05em;}.cls-12{letter-spacing:-.05em;}.cls-13{letter-spacing:-.05em;}.cls-14{letter-spacing:-.03em;}.cls-15{letter-spacing:-.03em;}.cls-16{letter-spacing:-.03em;}.cls-17{letter-spacing:-.03em;}.cls-18{letter-spacing:0em;}.cls-19{letter-spacing:.02em;}.cls-20{letter-spacing:.03em;}.cls-21{letter-spacing:.03em;}.cls-22{letter-spacing:.01em;}.cls-23{letter-spacing:0em;}.cls-24{letter-spacing:0em;}</style></defs><text transform="translate(96.89 57.35)"><tspan class="cls-2"><tspan class="cls-3" x="0" y="0">Ho</tspan><tspan class="cls-14" x="32.17" y="0">r</tspan><tspan x="41.98" y="0">izo</tspan><tspan class="cls-24" x="75.3" y="0">n </tspan><tspan class="cls-21" x="96.5" y="0">C</tspan><tspan class="cls-3" x="112.3" y="0">i</tspan><tspan class="cls-11" x="119.75" y="0">t</tspan><tspan class="cls-15" x="127.1" y="0">y</tspan></tspan><tspan class="cls-1"><tspan class="cls-23" x="3.99" y="25.4">A </tspan><tspan class="cls-6" x="19.02" y="25.4">de</tspan><tspan class="cls-13" x="36.75" y="25.4">v</tspan><tspan class="cls-10" x="46.06" y="25.4">el</tspan><tspan class="cls-13" x="58.91" y="25.4">o</tspan><tspan class="cls-5" x="67.82" y="25.4">p</tspan><tspan class="cls-8" x="78.06" y="25.4">m</tspan><tspan class="cls-18" x="93.83" y="25.4">e</tspan><tspan class="cls-17" x="101.96" y="25.4">n</tspan><tspan class="cls-23" x="112.04" y="25.4">t </tspan><tspan class="cls-9" x="121.29" y="25.4">o</tspan><tspan class="cls-20" x="130.7" y="25.4">f</tspan></tspan><tspan class="cls-1"><tspan class="cls-5" x="-7" y="45.8">H</tspan><tspan class="cls-10" x="4.69" y="45.8">o</tspan><tspan class="cls-16" x="14.2" y="45.8">r</tspan><tspan x="20.86" y="45.8">i</tspan><tspan class="cls-18" x="25.93" y="45.8">z</tspan><tspan class="cls-5" x="33.59" y="45.8">o</tspan><tspan class="cls-23" x="42.93" y="45.8">n </tspan><tspan x="57" y="45.8">C</tspan><tspan class="cls-10" x="67.15" y="45.8">o</tspan><tspan class="cls-4" x="76.65" y="45.8">r</tspan><tspan class="cls-19" x="82.64" y="45.8">p</tspan><tspan class="cls-10" x="93.64" y="45.8">o</tspan><tspan class="cls-12" x="103.14" y="45.8">r</tspan><tspan class="cls-9" x="109.46" y="45.8">a</tspan><tspan class="cls-7" x="117.98" y="45.8">t</tspan><tspan class="cls-18" x="123.52" y="45.8">i</tspan><tspan class="cls-5" x="128.42" y="45.8">o</tspan><tspan class="cls-22" x="137.75" y="45.8">n</tspan></tspan></text></svg>